<svg width="36" height="31" viewBox="0 0 36 31" fill="none" xmlns="http://www.w3.org/2000/svg">
<g clip-path="url(#clip0_1010_942)">
<path d="M35.2428 7.47194C35.5314 5.67953 35.1448 3.99601 34.1816 2.85533C33.2931 1.80178 31.8284 1.14133 30.1651 1.04223C28.2191 0.928438 26.2443 1.58399 24.6506 2.85642C23.4854 2.14697 21.6359 1.24859 19.2347 0.95185C17.8289 0.778163 16.7013 0.868001 16.1018 0.938783C13.6822 1.22354 11.8293 2.13881 10.6854 2.84336C9.0917 1.57037 7.11635 0.914282 5.17148 1.03025C3.50757 1.12826 2.04293 1.78871 1.15489 2.84227C0.191714 3.98294 -0.195408 5.66646 0.0937084 7.45887C0.399703 9.36235 1.42386 11.0954 2.95492 12.3553C2.00482 13.9751 0.852162 16.7541 1.51805 19.9938C2.10609 22.8528 3.83316 24.6392 4.64062 25.451C10.8629 31.706 24.4731 31.7169 30.6954 25.4641C31.5017 24.6539 33.2299 22.867 33.8185 20.0068C34.4844 16.7683 33.3317 13.9882 32.3816 12.3684C33.9127 11.1085 34.9363 9.37542 35.2428 7.47194ZM29.8493 12.7555C30.5701 13.7492 32.1758 16.3986 31.5317 19.5364C31.0738 21.7655 29.6984 23.1653 29.014 23.8427C23.5878 29.2101 11.7482 29.1981 6.3225 23.8296C5.63646 23.1512 4.26275 21.7513 3.80485 19.5228C3.16019 16.3855 4.76694 13.7361 5.48728 12.7425L6.22776 11.721L5.15297 11.0617C3.66165 10.1475 2.65873 8.69864 2.39902 7.08808C2.22424 5.99968 2.43059 4.95047 2.93859 4.34828C3.41065 3.78965 4.29597 3.4205 5.30978 3.36061C6.549 3.28819 7.81709 3.66824 8.8946 4.41907C8.20911 5.19821 7.66191 6.09387 7.30855 7.09571C8.60058 6.14451 9.9095 5.27934 11.3611 4.63032C12.1222 4.29003 13.9027 3.5735 16.3082 3.37204C16.8058 3.33012 17.7881 3.2724 19.0284 3.38402C19.8609 3.45916 21.772 3.65952 23.9755 4.64339C25.427 5.29186 26.736 6.15866 28.0275 7.10877C27.6746 6.10694 27.1269 5.21128 26.4414 4.43213C27.5195 3.6813 28.787 3.30126 30.0268 3.37367C31.04 3.43357 31.9259 3.80272 32.3974 4.36135C32.9054 4.96354 33.1123 6.01274 32.9375 7.10115C32.6778 8.71171 31.6743 10.1606 30.1836 11.0747L29.1082 11.7341L29.8493 12.7555Z" fill="url(#paint0_linear_1010_942)"/>
<path d="M30.1835 11.0748L29.1082 11.7342L29.8492 12.7556C30.5701 13.7493 32.1758 16.3987 31.5317 19.5365C31.0738 21.7656 29.6984 23.1654 29.014 23.8428C23.5878 29.2102 11.7482 29.1982 6.32248 23.8297C5.63644 23.1513 4.26273 21.7514 3.80483 19.5229C3.16017 16.3856 4.76692 13.7362 5.48726 12.7425L6.22774 11.7211L5.15295 11.0618C3.66163 10.1476 2.65871 8.69873 2.399 7.08818C2.22422 5.99977 2.43058 4.95057 2.93857 4.34838C3.41063 3.78975 4.29595 3.42059 5.30976 3.3607C6.54898 3.28829 7.81707 3.66833 8.89458 4.41916C8.20909 5.1983 7.66189 6.09397 7.30853 7.0958C8.60056 6.1446 9.90948 5.27943 11.3611 4.63042C12.1222 4.29012 13.9027 3.57359 16.3082 3.37213C16.8058 3.33021 17.788 3.2725 19.0283 3.38411C19.8609 3.45925 21.772 3.65962 23.9754 4.64348C25.427 5.29195 26.7359 6.15876 28.0274 7.10887C27.6746 6.10703 27.1269 5.21137 26.4414 4.43223C27.5194 3.6814 28.787 3.30135 30.0267 3.37377C31.04 3.43366 31.9259 3.80281 32.3974 4.36145C32.9054 4.96363 33.1123 6.01284 32.9375 7.10124C32.6778 8.7118 31.6743 10.1606 30.1835 11.0748Z" fill="url(#paint1_linear_1010_942)"/>
<path d="M22.0311 23.099C21.8928 23.5139 21.4735 23.9059 20.3067 24.28C17.8751 25.0586 15.8099 24.5168 15.0308 24.2669C13.8841 23.8988 13.4502 23.5172 13.3064 23.0859C13.2776 22.9988 13.1404 22.5621 13.2879 22.1696C13.5057 21.5924 14.2685 21.3109 15.1647 21.6393C15.0972 21.5325 14.0681 19.8381 14.5957 18.0474C15.2366 15.8738 17.5027 15.8297 17.7047 15.8297V15.8439C18.1435 15.8597 20.1467 16.0382 20.7423 18.0604C21.2699 19.8512 20.2409 21.5456 20.1733 21.6523C21.069 21.3246 21.8323 21.6055 22.0501 22.1826C22.1977 22.5752 22.0605 23.0119 22.0316 23.099H22.0311Z" fill="#663D00"/>
<path d="M11.3664 15.6369C12.1302 15.6369 12.7493 14.8395 12.7493 13.8559C12.7493 12.8723 12.1302 12.075 11.3664 12.075C10.6026 12.075 9.9834 12.8723 9.9834 13.8559C9.9834 14.8395 10.6026 15.6369 11.3664 15.6369Z" fill="#663D00"/>
<path d="M23.9699 15.65C24.7337 15.65 25.3528 14.8526 25.3528 13.869C25.3528 12.8854 24.7337 12.088 23.9699 12.088C23.2061 12.088 22.5869 12.8854 22.5869 13.869C22.5869 14.8526 23.2061 15.65 23.9699 15.65Z" fill="#663D00"/>
</g>
<defs>
<linearGradient id="paint0_linear_1010_942" x1="17.6682" y1="0.851501" x2="17.6682" y2="30.148" gradientUnits="userSpaceOnUse">
<stop stop-color="#B06A00"/>
<stop offset="1" stop-color="#683E00"/>
</linearGradient>
<linearGradient id="paint1_linear_1010_942" x1="17.6682" y1="3.31934" x2="17.6682" y2="27.8622" gradientUnits="userSpaceOnUse">
<stop stop-color="#F7AC3C"/>
<stop offset="1" stop-color="#FFA31A"/>
</linearGradient>
<clipPath id="clip0_1010_942">
<rect width="35.3364" height="29.2966" fill="white" transform="translate(0 0.851746)"/>
</clipPath>
</defs>
</svg>
